PathFileType	4	(X/Y/Z)	9_coords_data.trc
DataRate	CameraRate	NumFrames	NumMarkers	Units	OrigDataRate	OrigDataStartFrame	OrigNumFrames
30.0	30.0	4	21	m	30.0	1	49
Frame#	Time	THUMB_TIP	THUMB_IP	THUMB_MCP	THUMB_CMC	INDEX_TIP	INDEX_DIP	INDEX_PIP	INDEX_MCP	MIDDLE_TIP	MIDDLE_DIP	MIDDLE_PIP	MIDDLE_MCP	RING_TIP	RING_DIP	RING_PIP	RING_MCP	PINKY_TIP	PINKY_DIP	PINKY_PIP	PINKY_MCP	WRIST
X1	Y1	Z1	X2	Y2	Z2	X3	Y3	Z3	X4	Y4	Z4	X5	Y5	Z5	X6	Y6	Z6	X7	Y7	Z7	X8	Y8	Z8	X9	Y9	Z9	X10	Y10	Z10	X11	Y11	Z11	X12	Y12	Z12	X13	Y13	Z13	X14	Y14	Z14	X15	Y15	Z15	X16	Y16	Z16	X17	Y17	Z17	X18	Y18	Z18	X19	Y19	Z19	X20	Y20	Z20	X21	Y21	Z21
0	0.0	0.055413799285888674	-0.002861180067062378	1.0226400146484376	0.053146800994873046	-0.014525799751281739	1.0444100341796876	0.039174800872802736	-0.015952199935913087	1.0701600341796875	0.026302400588989257	-7.2880797088146e-05	1.0872900390625	0.03244010162353515	-0.02420289993286133	1.0545699462890625	0.04348809814453125	-0.024601600646972657	1.03925	0.03976350021362305	-0.029801799774169923	1.0184099731445313	0.005088280200958252	-0.036048099517822264	1.0358800048828125	0.03391239929199219	-0.008508029937744141	1.057280029296875	0.04029710006713867	-0.006662049770355225	1.0470699462890625	0.0397239990234375	-0.008623849868774415	1.0198099975585937	-0.001428969979286193	-0.014318400382995606	1.0275400390625	0.0	0.0	0.0	0.032187801361083984	0.010809800148010255	1.0551300048828125	0.03571469879150391	0.012578300476074219	1.028239990234375	-0.002529269933700561	0.008669509887695312	1.0309000244140625	0.0	0.0	0.0	0.030731700897216798	0.02175819969177246	1.0630899658203126	0.03461669921875	0.029351699829101564	1.045010009765625	0.000749961972236633	0.03127610015869141	1.0403399658203125	-0.015282600402832032	0.009453490257263183	1.1101500244140625
1	0.03333333333333333	0.0544734001159668	-0.002607019901275634	1.0229199829101563	0.05356890106201172	-0.014378399848937988	1.04472998046875	0.03858349990844727	-0.018624399185180666	1.06977001953125	0.02369059944152832	0.0010142999887466431	1.086969970703125	0.03027280044555664	-0.02519700050354004	1.0563499755859376	0.04249689865112305	-0.02509119987487793	1.040550048828125	0.039764198303222656	-0.03028919982910156	1.019739990234375	0.005216430187225342	-0.03631679916381836	1.0353299560546876	0.03523860168457031	-0.008424610137939452	1.0530799560546875	0.03876150131225586	-0.006454770088195801	1.047510009765625	0.039323299407958985	-0.009015700340270997	1.0200999755859375	-0.001146610021591186	-0.015005900382995605	1.0274599609375	0.029989500045776368	0.005005499839782715	1.0584100341796876	0.03308319854736328	0.009498590469360352	1.0564000244140626	0.03638859939575195	0.012807600021362305	1.0290699462890625	-0.002560970067977905	0.00850452995300293	1.03075	0.017924200057983397	0.017342599868774414	1.0729100341796876	0.030001899719238282	0.022015100479125978	1.06352001953125	0.03208940124511719	0.028957700729370116	1.0450999755859376	0.0012824000120162959	0.030678800582885742	1.041219970703125	-0.011901399612426759	0.00937936019897461	1.11225
2	0.06666666666666667	0.054147098541259764	-0.002740469932556152	1.02297998046875	0.053233200073242185	-0.01439229965209961	1.045	0.038280601501464846	-0.018336999893188478	1.0701300048828124	0.023129100799560546	0.000712027013301849	1.08693994140625	0.02960740089416504	-0.025198400497436522	1.0559599609375	0.042209999084472656	-0.02514550018310547	1.0406600341796874	0.03950659942626953	-0.030391599655151365	1.020010009765625	0.005005799770355225	-0.036369400024414064	1.035739990234375	0.034864898681640624	-0.008331809997558594	1.053489990234375	0.03833240127563477	-0.006454319953918457	1.04752001953125	0.03903509902954101	-0.009069430351257323	1.020260009765625	-0.001517770051956176	-0.015044400215148926	1.0278299560546875	0.02922170066833496	0.004868249893188478	1.0589100341796875	0.0325443000793457	0.009493379592895508	1.0561700439453126	0.03607279968261719	0.012726699829101563	1.0292099609375	-0.002869169950485229	0.008429630279541016	1.030760009765625	0.01749519920349121	0.017349300384521486	1.072969970703125	0.029665599822998046	0.02208650016784668	1.0635899658203125	0.03171360015869141	0.028963600158691406	1.04518994140625	0.00101593005657196	0.030664600372314454	1.041219970703125	-0.012468600273132324	0.009442959785461426	1.1126800537109376
3	0.1	0.05365650177001953	-0.0026390199661254885	1.0231599731445313	0.05246070098876953	-0.014444399833679199	1.0453699951171875	0.03763790130615234	-0.01834560012817383	1.0701099853515625	0.02270859909057617	0.0012088700532913198	1.08752001953125	0.02957819938659668	-0.02504910087585449	1.0564599609375	0.04174240112304688	-0.02498340034484863	1.0408399658203125	0.03910509872436523	-0.03034600067138672	1.0201099853515625	0.004709859848022461	-0.03635449981689453	1.0356300048828124	0.03449420166015625	-0.008227049827575683	1.0533299560546876	0.03785150146484375	-0.0062778000831604005	1.047800048828125	0.038435298919677736	-0.008961930274963378	1.0203499755859375	-0.002035769939422607	-0.015041299819946289	1.027969970703125	0.02917609977722168	0.005396669864654541	1.059050048828125	0.03210720062255859	0.009694120407104493	1.0565699462890625	0.035410400390625	0.012829700469970702	1.02918994140625	-0.00337637996673584	0.008417840003967286	1.0308900146484374	0.016836999893188476	0.017638500213623048	1.0730699462890625	0.02904369926452637	0.02224690055847168	1.06356005859375	0.031011299133300783	0.029130800247192383	1.0451099853515624	0.00026733300089836105	0.030648000717163087	1.0412099609375	-0.01283590030670166	0.009624589920043945	1.112780029296875
